<svg xmlns="http://www.w3.org/2000/svg" viewBox="0 0 900 620" role="img" aria-label="Colima historic center illustration"><rect width="900" height="620" fill="#fbf0d3"/><path d="M0 390h900v230H0z" fill="#dca85e"/><path d="M80 260h740v190H80z" fill="#fff8e7"/><path d="M80 260h740l-90-86H170z" fill="#b85c38"/><rect x="140" y="330" width="74" height="120" fill="#2d5c43"/><rect x="270" y="330" width="74" height="120" fill="#2d5c43"/><rect x="400" y="330" width="74" height="120" fill="#2d5c43"/><rect x="530" y="330" width="74" height="120" fill="#2d5c43"/><rect x="660" y="330" width="74" height="120" fill="#2d5c43"/><path d="M130 310c25-50 70-50 94 0" fill="none" stroke="#a85a37" stroke-width="12"/><path d="M260 310c25-50 70-50 94 0" fill="none" stroke="#a85a37" stroke-width="12"/><path d="M390 310c25-50 70-50 94 0" fill="none" stroke="#a85a37" stroke-width="12"/><path d="M520 310c25-50 70-50 94 0" fill="none" stroke="#a85a37" stroke-width="12"/><path d="M650 310c25-50 70-50 94 0" fill="none" stroke="#a85a37" stroke-width="12"/><circle cx="735" cy="110" r="54" fill="#f2c66d"/><text x="55" y="100" fill="#163d2e" font-family="Georgia,serif" font-size="52" font-weight="700">Centro Histórico</text></svg>
