<svg xmlns="http://www.w3.org/2000/svg" viewBox="0 0 900 620" role="img" aria-label="Comala volcano and white pueblo illustration">
<defs><linearGradient id="s" x1="0" y1="0" x2="0" y2="1"><stop offset="0" stop-color="#cce9ec"/><stop offset="1" stop-color="#fff0c2"/></linearGradient></defs><rect width="900" height="620" fill="url(#s)"/><circle cx="725" cy="110" r="58" fill="#f2c66d"/><path d="M0 375l250-255 105 125 75-93 290 223z" fill="#7d8f77"/><path d="M135 375l285-306 140 306z" fill="#5c775a"/><path d="M336 158l84-89 44 89-55-24z" fill="#f3f4e7"/><path d="M0 365c160-45 262-20 350-48 141-44 236-24 550 30v273H0z" fill="#30543b"/><g transform="translate(80 330)"><rect width="160" height="120" fill="#fbf5e6"/><path d="M0 0h160L80-55z" fill="#a74d31"/><rect x="24" y="50" width="30" height="70" fill="#2b5a42"/><rect x="74" y="45" width="55" height="35" fill="#8fbab1"/></g><g transform="translate(275 345)"><rect width="210" height="105" fill="#fff9ed"/><path d="M0 0h210L105-64z" fill="#c46a3f"/><rect x="95" y="45" width="42" height="60" fill="#2b5a42"/><rect x="30" y="35" width="45" height="32" fill="#8fbab1"/><rect x="152" y="35" width="36" height="32" fill="#8fbab1"/></g><g transform="translate(535 330)"><rect width="170" height="120" fill="#f8efd8"/><path d="M0 0h170L85-55z" fill="#9a472f"/><rect x="70" y="55" width="36" height="65" fill="#2b5a42"/><rect x="25" y="40" width="38" height="30" fill="#8fbab1"/></g><path d="M0 450h900v170H0z" fill="#e6b75e"/><path d="M0 485c150-46 280-34 420-10 170 30 292 15 480-30v175H0z" fill="#2d6b56" opacity=".8"/><text x="48" y="80" fill="#163d2e" font-family="Georgia,serif" font-size="54" font-weight="700">Comala</text></svg>
