<svg xmlns="http://www.w3.org/2000/svg" viewBox="0 0 900 620" role="img" aria-label="Cuyutlan estuary and salt flats illustration"><rect width="900" height="620" fill="#eaf3e4"/><path d="M0 290c110-35 210-30 320 0 180 50 300 22 580-12v342H0z" fill="#88c2b8"/><path d="M0 418c210-78 420-55 900-25v227H0z" fill="#f2d294"/><path d="M80 438h620" stroke="#fff8e7" stroke-width="20" opacity=".75"/><path d="M150 470h570" stroke="#fff8e7" stroke-width="12" opacity=".65"/><g fill="#2d6b56"><path d="M120 285c0 0 36-90 90-140 20 80-10 145-90 140z"/><path d="M210 287c0 0 70-70 150-72-20 70-80 95-150 72z"/><path d="M145 298c0 0-65-40-94-110 75 5 105 55 94 110z"/></g><rect x="155" y="292" width="20" height="165" fill="#8d5534"/><circle cx="720" cy="105" r="55" fill="#f2c66d"/><text x="60" y="90" font-family="Georgia,serif" font-size="52" fill="#163d2e" font-weight="700">Cuyutlán</text></svg>
