<svg xmlns="http://www.w3.org/2000/svg" viewBox="0 0 900 620" role="img" aria-label="Sport fishing in Manzanillo illustration"><rect width="900" height="620" fill="#d6eff0"/><path d="M0 300c160-40 300-20 430-3 180 22 275-20 470-42v365H0z" fill="#1f6f73"/><path d="M0 410c150 35 270 28 420 0 170-32 285-12 480 35v175H0z" fill="#64aaa6"/><path d="M130 372h350l-62 68H200z" fill="#fff8e7"/><path d="M255 320h125l40 52H220z" fill="#b85c38"/><path d="M460 315c130 40 183 105 180 190" stroke="#163d2e" stroke-width="10" fill="none" stroke-linecap="round"/><path d="M660 494c45-24 85-24 130 0-45 32-85 32-130 0z" fill="#f2c66d"/><circle cx="757" cy="489" r="6" fill="#163d2e"/><text x="62" y="90" font-family="Georgia,serif" font-size="52" fill="#163d2e" font-weight="700">Pesca & Mar</text></svg>
