<svg xmlns="http://www.w3.org/2000/svg" viewBox="0 0 900 620" role="img" aria-label="Colima food and coffee illustration"><rect width="900" height="620" fill="#fff4d7"/><circle cx="705" cy="110" r="56" fill="#f2c66d"/><rect x="165" y="210" width="570" height="260" rx="30" fill="#2f6541"/><circle cx="365" cy="340" r="105" fill="#fff8e7"/><circle cx="365" cy="340" r="70" fill="#b85c38"/><path d="M500 295h95c55 0 55 95 0 95h-95z" fill="#f7e5bd"/><path d="M595 320c24 0 24 45 0 45" fill="none" stroke="#b85c38" stroke-width="18" stroke-linecap="round"/><path d="M505 270c15-30 20-50 0-82M553 270c15-30 20-50 0-82M601 270c15-30 20-50 0-82" stroke="#8d5534" stroke-width="10" stroke-linecap="round" fill="none" opacity=".7"/><text x="70" y="95" font-family="Georgia,serif" font-size="52" fill="#163d2e" font-weight="700">Sabores de Colima</text></svg>
