<svg xmlns="http://www.w3.org/2000/svg" viewBox="0 0 900 620" role="img" aria-label="Mountain hiking trail illustration"><rect width="900" height="620" fill="#d7eee5"/><path d="M0 440l170-170 95 85 135-170 165 200 128-118 207 180v173H0z" fill="#2f6541"/><path d="M280 620c30-90 95-120 95-205 0-65 75-95 142-70 88 33 97 103 160 118 80 19 100 76 115 157z" fill="#e8c77e"/><path d="M390 620c25-80 58-104 66-166" stroke="#765238" stroke-width="18" fill="none" stroke-linecap="round"/><circle cx="158" cy="125" r="55" fill="#f2c66d"/><g transform="translate(598 336)" fill="#163d2e"><circle cx="40" cy="0" r="20"/><path d="M38 22l-34 105h26l20-58 38 58h32L62 28z"/><path d="M32 85l-62 45" stroke="#163d2e" stroke-width="12" stroke-linecap="round"/><path d="M73 90l55 35" stroke="#163d2e" stroke-width="12" stroke-linecap="round"/></g><text x="58" y="92" font-family="Georgia,serif" font-size="52" fill="#163d2e" font-weight="700">Naturaleza</text></svg>
