<svg xmlns="http://www.w3.org/2000/svg" viewBox="0 0 900 620" role="img" aria-label="Manzanillo beach illustration"><defs><linearGradient id="sky" x1="0" y1="0" x2="0" y2="1"><stop offset="0" stop-color="#b9e9f1"/><stop offset="1" stop-color="#fff4c9"/></linearGradient><linearGradient id="sea" x1="0" y1="0" x2="1" y2="0"><stop offset="0" stop-color="#1c6e75"/><stop offset="1" stop-color="#62aaa8"/></linearGradient></defs><rect width="900" height="620" fill="url(#sky)"/><circle cx="720" cy="105" r="62" fill="#f2c66d"/><path d="M0 245c128-40 232-15 330-8 148 10 250-70 570-25v165H0z" fill="url(#sea)"/><path d="M0 340c150 55 322 72 515 45 140-20 243 10 385 55v180H0z" fill="#e7bd76"/><path d="M0 366c205 55 354 60 570 30 110-16 206 8 330 54" fill="none" stroke="#fff8e7" stroke-width="18" opacity=".75"/><path d="M80 315c45-90 80-135 125-190 7 96-10 174-38 240z" fill="#2d6b56"/><path d="M150 242c63-14 115-6 160 15-65 12-115 33-153 67z" fill="#2d6b56"/><path d="M116 274c-60-27-90-55-105-91 72 22 112 50 131 83z" fill="#2d6b56"/><rect x="127" y="310" width="22" height="170" fill="#8d5534" transform="rotate(9 127 310)"/><path d="M520 370l70-70 70 70z" fill="#b85c38"/><path d="M590 300v135" stroke="#6e3d2a" stroke-width="6"/><path d="M460 410h255" stroke="#6e3d2a" stroke-width="9" stroke-linecap="round"/><text x="48" y="86" fill="#163d2e" font-family="Georgia,serif" font-size="54" font-weight="700">Manzanillo</text></svg>
