<svg xmlns="http://www.w3.org/2000/svg" viewBox="0 0 900 620" role="img" aria-label="Nogueras hacienda and garden illustration"><rect width="900" height="620" fill="#f8efd8"/><rect x="95" y="230" width="710" height="230" fill="#fff8e7"/><path d="M95 230h710L700 140H200z" fill="#a84f32"/><rect x="185" y="310" width="95" height="150" fill="#2f6541"/><rect x="365" y="310" width="95" height="150" fill="#2f6541"/><rect x="545" y="310" width="95" height="150" fill="#2f6541"/><path d="M165 292c38-65 100-65 138 0" fill="none" stroke="#d7a766" stroke-width="15"/><path d="M345 292c38-65 100-65 138 0" fill="none" stroke="#d7a766" stroke-width="15"/><path d="M525 292c38-65 100-65 138 0" fill="none" stroke="#d7a766" stroke-width="15"/><path d="M0 460c160-35 270-36 420-5 196 40 315 25 480-18v183H0z" fill="#2d6b56"/><g fill="#f2c66d"><circle cx="125" cy="475" r="10"/><circle cx="180" cy="490" r="9"/><circle cx="700" cy="470" r="10"/><circle cx="755" cy="490" r="8"/></g><text x="60" y="95" font-family="Georgia,serif" font-size="52" fill="#163d2e" font-weight="700">Nogueras</text></svg>
