<svg xmlns="http://www.w3.org/2000/svg" viewBox="0 0 900 620" role="img" aria-label="Pacific sunset trip illustration"><defs><linearGradient id="g" x1="0" y1="0" x2="0" y2="1"><stop offset="0" stop-color="#f4c36b"/><stop offset=".55" stop-color="#c8744f"/><stop offset="1" stop-color="#1f4b42"/></linearGradient></defs><rect width="900" height="620" fill="url(#g)"/><circle cx="450" cy="295" r="105" fill="#f9d77e"/><path d="M0 350c145-30 270-10 420 0 168 12 278-16 480-43v313H0z" fill="#1b6d72" opacity=".85"/><path d="M0 430c160 40 340 38 510 5 130-25 241 0 390 43v142H0z" fill="#0e3a35" opacity=".75"/><path d="M105 245c45-90 82-138 125-190 7 96-10 174-38 240z" fill="#163d2e"/><path d="M175 172c65-14 115-6 160 15-65 12-115 33-153 67z" fill="#163d2e"/><rect x="152" y="242" width="20" height="200" fill="#6b432f"/><text x="54" y="90" font-family="Georgia,serif" font-size="52" fill="#fff8e7" font-weight="700">Atardecer Pacífico</text></svg>
